<svg width="64" height="64" viewBox="0 0 64 64" fill="none" xmlns="http://www.w3.org/2000/svg">
<path fill-rule="evenodd" clip-rule="evenodd" d="M61.821 11.045C62.524 9.736 60.93 10.133 60.93 10.133C60.93 10.133 50.303 20.334 48.826 19.084C47.349 17.834 59.231 8.057 57.825 6.23C56.524 4.527 46.085 16.685 44.831 15.2C43.589 13.718 53.77 3.077 53.77 3.077C53.77 3.077 54.157 1.475 52.858 2.177C36.851 10.785 34.812 18.81 34.812 18.81C34.812 18.81 34.261 20.373 35.457 21.581C35.574 21.686 6.25301 50.841 2.32801 54.777C0.418009 56.685 7.42601 63.578 9.32401 61.67C13.25 57.734 42.348 28.367 42.453 28.476C43.66 29.681 45.219 29.128 45.219 29.128C45.219 29.128 53.231 27.083 61.821 11.045Z" fill="white"/>
<path fill-rule="evenodd" clip-rule="evenodd" d="M32.028 40.507C39.831 48.327 52.986 61.506 52.986 61.506C52.986 61.506 58.728 59.627 59.537 54.777L38.662 33.861C36.4486 36.0743 34.2373 38.2896 32.028 40.507Z" fill="white"/>
<path fill-rule="evenodd" clip-rule="evenodd" d="M21.76 33.729C24.559 30.9323 27.3546 28.1323 30.147 25.329L7.45901 2.598C7.45901 2.598 7.049 2.168 6.146 3.075C4.353 4.862 0.884005 16.248 15.591 30.977C17.922 33.313 19.95 33.637 21.76 33.729Z" fill="white"/>
</svg>
