<svg width="894" height="750" viewBox="0 0 894 750" fill="none" xmlns="http://www.w3.org/2000/svg">
<g clip-path="url(#clip0_9_91)">
<path d="M581.759 741.149L414.346 439.311C414.299 438.573 414.07 437.857 413.68 437.228C413.291 436.599 412.752 436.075 412.112 435.704C411.377 435.283 410.538 435.081 409.693 435.12C409.666 435.118 409.639 435.119 409.612 435.118C409.584 435.119 409.557 435.118 409.53 435.12C408.385 435.066 407.263 435.457 406.4 436.212C405.536 436.966 404.998 438.025 404.897 439.167L227.465 741.149C227.169 741.661 226.977 742.226 226.899 742.812C226.822 743.398 226.861 743.993 227.014 744.565C227.166 745.136 227.43 745.671 227.79 746.14C228.15 746.609 228.598 747.003 229.11 747.298C229.622 747.594 230.187 747.785 230.774 747.863C231.36 747.94 231.955 747.901 232.526 747.747C233.097 747.594 233.632 747.33 234.101 746.97C234.57 746.61 234.963 746.161 235.259 745.649L409.492 449.113L573.965 745.649C574.26 746.161 574.653 746.61 575.122 746.97C575.591 747.33 576.126 747.594 576.697 747.747C577.268 747.901 577.864 747.94 578.45 747.863C579.036 747.785 579.601 747.594 580.113 747.298C580.625 747.003 581.073 746.609 581.433 746.14C581.793 745.671 582.057 745.136 582.21 744.565C582.363 743.993 582.401 743.398 582.324 742.812C582.247 742.226 582.054 741.661 581.759 741.149Z" fill="#3F3D56"/>
<path d="M381.871 689.362L400.794 685.02L393.053 609.967L365.125 616.374L381.871 689.362Z" fill="#FFB6B6"/>
<path d="M396.501 653.105L369.572 659.282L360.961 642.455L360.474 641.859C356.654 637.17 354.534 631.327 354.459 625.28L332.076 566.073L330.246 565.203C328.83 564.53 327.574 563.562 326.562 562.365C325.55 561.167 324.805 559.767 324.377 558.259C323.949 556.751 323.848 555.169 324.08 553.618C324.312 552.068 324.872 550.584 325.723 549.268L323.353 543L256.491 543.123L256.425 543.104L174.319 520.072L182.94 468.681L206.036 483.209C213.647 482.716 344.016 474.711 356.06 503.928C366.785 529.945 382.24 574.395 393.317 607.102C393.869 608.57 394.556 609.984 395.368 611.327C397.091 613.981 398.102 617.034 398.304 620.191C398.435 621.565 398.697 622.924 399.087 624.248C403.691 638.01 396.677 652.742 396.606 652.889L396.501 653.105Z" fill="#2F2E41"/>
<path d="M375.478 683.087L381.631 681.675L403.41 666.397L418.524 673.21L418.526 673.21C425.801 671.541 433.442 672.831 439.766 676.795C446.091 680.759 450.582 687.073 452.251 694.349L452.456 695.24L381.977 711.411L375.478 683.087Z" fill="#2F2E41"/>
<path d="M96.0851 684.772C98.009 663.831 110.275 642.865 129.949 635.438C122.794 657.159 123.552 680.71 132.09 701.925C135.412 710.095 139.958 718.836 137.35 727.261C135.728 732.504 131.479 736.611 126.667 739.249C121.854 741.886 116.463 743.243 111.139 744.574L110.112 745.48C100.984 726.536 94.1612 705.713 96.0851 684.772Z" fill="#F0F0F0"/>
<path d="M130.159 635.826C118.992 649.178 112.316 665.709 111.079 683.071C110.746 686.804 111.004 690.566 111.843 694.219C112.775 697.751 114.636 700.968 117.232 703.538C119.604 705.982 122.314 708.208 124.051 711.186C124.918 712.724 125.45 714.428 125.612 716.185C125.774 717.943 125.562 719.715 124.991 721.385C123.677 725.584 120.932 729.061 118.13 732.367C115.019 736.038 111.729 739.801 110.51 744.574C110.362 745.153 109.473 744.89 109.621 744.312C111.742 736.008 119.579 731.077 123.15 723.544C124.816 720.029 125.433 715.99 123.65 712.394C122.09 709.248 119.298 706.951 116.874 704.497C114.305 702.028 112.379 698.967 111.265 695.581C110.243 691.983 109.841 688.237 110.075 684.504C110.47 676.091 112.184 667.793 115.156 659.912C118.499 650.9 123.358 642.525 129.524 635.151C129.906 634.695 130.539 635.373 130.159 635.826L130.159 635.826Z" fill="white"/>
<path d="M111.148 677.457C108.263 676.854 105.687 675.245 103.878 672.918C102.07 670.591 101.148 667.697 101.277 664.752C101.284 664.632 101.336 664.519 101.424 664.437C101.512 664.356 101.628 664.311 101.749 664.313C101.869 664.315 101.983 664.364 102.068 664.449C102.153 664.534 102.202 664.649 102.204 664.769C102.079 667.51 102.938 670.206 104.626 672.37C106.315 674.534 108.721 676.023 111.41 676.568C111.994 676.688 111.729 677.576 111.148 677.457H111.148Z" fill="white"/>
<path d="M115.866 702.457C120.936 699.204 124.595 694.159 126.111 688.329C126.261 687.751 127.15 688.014 127 688.591C125.411 694.655 121.593 699.897 116.309 703.271C115.805 703.592 115.364 702.776 115.866 702.457H115.866Z" fill="white"/>
<path d="M119.386 651.75C120.454 652.216 121.62 652.409 122.781 652.313C123.942 652.216 125.061 651.833 126.037 651.198C126.536 650.87 126.976 651.686 126.48 652.012C125.398 652.709 124.162 653.13 122.88 653.24C121.598 653.349 120.308 653.143 119.124 652.639C119.008 652.601 118.912 652.52 118.854 652.413C118.795 652.306 118.78 652.181 118.811 652.063C118.846 651.946 118.926 651.847 119.034 651.788C119.142 651.729 119.268 651.716 119.386 651.75H119.386Z" fill="white"/>
<path d="M191.779 670.745C191.473 670.958 191.167 671.172 190.861 671.393C186.76 674.282 182.901 677.5 179.321 681.014C179.04 681.282 178.759 681.557 178.486 681.832C169.952 690.39 163.081 700.459 158.223 711.526C156.294 715.932 154.702 720.478 153.463 725.125C151.752 731.542 150.407 738.637 146.782 743.958C146.41 744.517 146.003 745.053 145.565 745.562L111.298 746.663C111.218 746.626 111.139 746.598 111.06 746.561L109.694 746.668C109.741 746.423 109.795 746.171 109.842 745.927C109.869 745.785 109.903 745.643 109.93 745.502C109.95 745.407 109.971 745.313 109.984 745.226C109.991 745.195 109.998 745.163 110.004 745.139C110.017 745.053 110.038 744.974 110.052 744.895C110.351 743.485 110.66 742.074 110.98 740.663C110.98 740.655 110.98 740.655 110.987 740.647C113.322 729.87 116.926 719.409 121.726 709.482C121.873 709.187 122.019 708.885 122.182 708.591C124.411 704.193 126.995 699.985 129.91 696.008C131.513 693.836 133.224 691.746 135.038 689.747C139.736 684.59 145.215 680.204 151.275 676.75C163.357 669.866 177.506 666.923 190.769 670.465C191.108 670.555 191.44 670.646 191.779 670.745Z" fill="#F0F0F0"/>
<path d="M191.716 671.183C174.761 675.12 159.478 684.299 148.037 697.417C145.524 700.197 143.464 703.356 141.935 706.778C140.553 710.159 140.101 713.848 140.627 717.463C141.05 720.843 141.874 724.252 141.468 727.676C141.234 729.425 140.633 731.106 139.704 732.607C138.775 734.108 137.539 735.395 136.077 736.385C132.5 738.946 128.216 740.069 123.988 741.022C119.293 742.08 114.401 743.104 110.553 746.181C110.087 746.554 109.536 745.809 110.001 745.436C116.695 740.083 125.921 740.865 133.308 737C136.754 735.197 139.679 732.344 140.42 728.398C141.068 724.948 140.222 721.432 139.764 718.013C139.199 714.495 139.505 710.891 140.654 707.518C142.004 704.03 143.938 700.796 146.373 697.957C151.753 691.477 158.118 685.884 165.236 681.381C173.331 676.197 182.252 672.436 191.615 670.261C192.195 670.127 192.292 671.049 191.716 671.182V671.183Z" fill="white"/>
<path d="M151.472 692.976C149.532 690.758 148.443 687.922 148.401 684.975C148.358 682.028 149.365 679.162 151.24 676.889C151.621 676.43 152.352 677.001 151.97 677.46C150.22 679.574 149.283 682.244 149.328 684.988C149.373 687.732 150.398 690.369 152.217 692.424C152.611 692.871 151.865 693.421 151.472 692.976V692.976Z" fill="white"/>
<path d="M140.187 715.777C146.195 716.233 152.153 714.408 156.874 710.665C157.342 710.294 157.893 711.039 157.426 711.41C152.506 715.295 146.301 717.182 140.051 716.694C139.455 716.647 139.595 715.731 140.187 715.777V715.777Z" fill="white"/>
<path d="M173.528 677.41C174.099 678.425 174.914 679.282 175.899 679.904C176.884 680.526 178.008 680.893 179.17 680.974C179.766 681.013 179.626 681.929 179.034 681.89C177.75 681.796 176.51 681.388 175.42 680.703C174.33 680.019 173.425 679.078 172.783 677.962C172.714 677.862 172.685 677.739 172.703 677.619C172.721 677.499 172.784 677.389 172.879 677.314C172.978 677.241 173.102 677.211 173.223 677.229C173.345 677.247 173.454 677.312 173.528 677.41H173.528Z" fill="white"/>
<path d="M656.735 684.772C654.811 663.831 642.545 642.865 622.871 635.438C630.026 657.159 629.268 680.71 620.731 701.925C617.408 710.095 612.863 718.836 615.47 727.261C617.093 732.504 621.341 736.611 626.154 739.249C630.966 741.886 636.357 743.243 641.681 744.574L642.708 745.48C651.837 726.536 658.659 705.713 656.735 684.772Z" fill="#F0F0F0"/>
<path d="M622.661 635.826C633.828 649.178 640.505 665.709 641.742 683.071C642.074 686.804 641.817 690.566 640.978 694.219C640.046 697.751 638.185 700.968 635.588 703.538C633.216 705.982 630.506 708.208 628.769 711.186C627.902 712.724 627.371 714.428 627.209 716.185C627.047 717.943 627.258 719.715 627.829 721.385C629.143 725.584 631.888 729.061 634.69 732.367C637.802 736.038 641.091 739.801 642.311 744.574C642.459 745.153 643.347 744.89 643.2 744.312C641.078 736.008 633.241 731.077 629.67 723.544C628.004 720.029 627.387 715.99 629.17 712.394C630.73 709.248 633.523 706.951 635.946 704.497C638.516 702.028 640.441 698.967 641.555 695.581C642.577 691.983 642.98 688.237 642.745 684.504C642.351 676.091 640.636 667.793 637.664 659.912C634.322 650.9 629.462 642.525 623.296 635.151C622.914 634.695 622.282 635.373 622.661 635.826L622.661 635.826Z" fill="white"/>
<path d="M641.672 677.457C644.557 676.854 647.134 675.245 648.942 672.918C650.75 670.591 651.672 667.697 651.543 664.752C651.537 664.632 651.484 664.519 651.396 664.437C651.308 664.355 651.192 664.311 651.072 664.313C650.951 664.315 650.837 664.364 650.752 664.449C650.667 664.534 650.618 664.649 650.616 664.769C650.741 667.51 649.882 670.206 648.194 672.37C646.506 674.534 644.1 676.023 641.41 676.568C640.826 676.688 641.091 677.576 641.672 677.457Z" fill="white"/>
<path d="M636.955 702.457C631.884 699.204 628.225 694.159 626.709 688.329C626.559 687.751 625.67 688.014 625.82 688.591C627.409 694.655 631.227 699.897 636.512 703.271C637.015 703.592 637.456 702.776 636.955 702.457H636.955Z" fill="white"/>
<path d="M633.434 651.75C632.366 652.216 631.2 652.409 630.039 652.313C628.878 652.216 627.76 651.833 626.783 651.198C626.284 650.87 625.844 651.686 626.34 652.012C627.422 652.709 628.658 653.13 629.94 653.24C631.223 653.349 632.512 653.143 633.696 652.639C633.812 652.601 633.909 652.52 633.967 652.413C634.025 652.306 634.04 652.181 634.01 652.063C633.974 651.946 633.894 651.847 633.786 651.788C633.678 651.729 633.552 651.716 633.434 651.75H633.434Z" fill="white"/>
<path d="M561.041 670.745C561.347 670.958 561.653 671.172 561.96 671.393C566.06 674.282 569.92 677.5 573.499 681.014C573.78 681.282 574.061 681.557 574.334 681.832C582.868 690.39 589.739 700.459 594.597 711.526C596.527 715.932 598.118 720.478 599.357 725.125C601.069 731.542 602.414 738.637 606.039 743.958C606.411 744.517 606.817 745.053 607.255 745.562L641.523 746.663C641.602 746.626 641.681 746.598 641.761 746.561L643.127 746.668C643.08 746.423 643.025 746.171 642.978 745.927C642.951 745.785 642.917 745.643 642.89 745.502C642.87 745.407 642.849 745.313 642.836 745.226C642.83 745.195 642.823 745.163 642.816 745.139C642.803 745.053 642.782 744.974 642.769 744.895C642.47 743.485 642.16 742.074 641.84 740.663C641.841 740.655 641.841 740.655 641.833 740.647C639.499 729.87 635.894 719.409 631.095 709.482C630.948 709.187 630.801 708.885 630.638 708.591C628.409 704.193 625.825 699.985 622.911 696.008C621.308 693.836 619.596 691.746 617.782 689.747C613.085 684.59 607.605 680.204 601.545 676.75C589.463 669.866 575.314 666.923 562.052 670.465C561.712 670.555 561.381 670.646 561.041 670.745Z" fill="#F0F0F0"/>
<path d="M561.104 671.183C578.059 675.12 593.343 684.299 604.784 697.417C607.297 700.197 609.356 703.356 610.885 706.778C612.267 710.159 612.719 713.848 612.193 717.463C611.77 720.843 610.946 724.252 611.353 727.676C611.587 729.425 612.188 731.106 613.117 732.607C614.046 734.108 615.281 735.395 616.743 736.385C620.32 738.946 624.605 740.069 628.833 741.022C633.527 742.08 638.42 743.104 642.267 746.181C642.733 746.554 643.284 745.809 642.819 745.436C636.125 740.083 626.899 740.865 619.513 737C616.066 735.197 613.142 732.344 612.4 728.398C611.752 724.948 612.598 721.432 613.056 718.013C613.621 714.495 613.316 710.891 612.167 707.518C610.816 704.03 608.882 700.796 606.447 697.957C601.067 691.477 594.702 685.884 587.585 681.381C579.49 676.197 570.568 672.436 561.205 670.261C560.625 670.127 560.528 671.049 561.104 671.182V671.183Z" fill="white"/>
<path d="M601.348 692.976C603.289 690.758 604.377 687.922 604.42 684.975C604.462 682.028 603.456 679.162 601.58 676.889C601.199 676.43 600.468 677.001 600.85 677.46C602.6 679.574 603.538 682.244 603.493 684.988C603.447 687.732 602.423 690.369 600.604 692.424C600.209 692.871 600.956 693.421 601.348 692.976V692.976Z" fill="white"/>
<path d="M612.633 715.777C606.626 716.233 600.667 714.408 595.946 710.665C595.479 710.294 594.927 711.039 595.394 711.41C600.315 715.295 606.519 717.182 612.769 716.694C613.365 716.647 613.226 715.731 612.633 715.777V715.777Z" fill="white"/>
<path d="M579.293 677.41C578.721 678.425 577.906 679.282 576.921 679.904C575.936 680.526 574.812 680.893 573.65 680.974C573.054 681.013 573.194 681.929 573.786 681.89C575.07 681.796 576.311 681.388 577.4 680.703C578.49 680.019 579.395 679.078 580.037 677.962C580.107 677.862 580.135 677.739 580.117 677.619C580.1 677.499 580.036 677.389 579.941 677.314C579.842 677.241 579.719 677.211 579.597 677.229C579.476 677.247 579.366 677.312 579.293 677.41H579.293Z" fill="white"/>
<path d="M893.68 748.34C893.679 748.655 893.554 748.958 893.331 749.181C893.108 749.404 892.806 749.529 892.49 749.53H1.19043C0.874822 749.53 0.572137 749.405 0.348969 749.181C0.1258 748.958 0.000427246 748.656 0.000427246 748.34C0.000427246 748.024 0.1258 747.722 0.348969 747.499C0.572137 747.275 0.874822 747.15 1.19043 747.15H892.49C892.806 747.151 893.108 747.276 893.331 747.499C893.554 747.722 893.679 748.025 893.68 748.34Z" fill="#3F3D56"/>
<path d="M574.112 288C576.597 288 578.612 285.985 578.612 283.5C578.612 281.015 576.597 279 574.112 279C571.626 279 569.612 281.015 569.612 283.5C569.612 285.985 571.626 288 574.112 288Z" fill="#3F3D56"/>
<path d="M517.763 318.162L578.43 280.048C578.979 279.703 579.592 279.473 580.232 279.372C580.872 279.27 581.526 279.3 582.154 279.458C582.783 279.617 583.373 279.901 583.888 280.294C584.404 280.687 584.834 281.18 585.154 281.744C585.474 282.308 585.676 282.93 585.748 283.575C585.82 284.219 585.761 284.871 585.574 285.491C585.387 286.112 585.076 286.688 584.66 287.185C584.245 287.683 583.732 288.09 583.154 288.384L519.286 320.849C518.931 321.029 518.521 321.066 518.14 320.951C517.759 320.837 517.437 320.579 517.241 320.233C517.044 319.887 516.989 319.479 517.087 319.093C517.184 318.707 517.426 318.374 517.763 318.162V318.162Z" fill="#E4E4E4"/>
<path d="M396.053 400.232C395.575 399.521 395.325 398.682 395.338 397.826C395.35 396.969 395.623 396.138 396.122 395.441C397.149 394.067 398.515 392.983 400.088 392.296C403.334 390.644 406.831 389.539 410.437 389.026C413.177 388.637 416.168 388.513 418.294 386.74C420.405 384.979 421.583 381.686 424.318 381.412C426.964 381.146 428.997 384.041 431.649 384.221C434.919 384.442 437.059 380.616 440.241 379.831C442.37 379.306 444.56 380.233 446.557 381.139L458.544 386.577L464.689 389.365C466.835 390.338 469.255 391.65 469.66 393.971C470.217 397.161 466.67 399.412 463.636 400.544C441.976 408.538 418.174 408.541 396.511 400.553" fill="#6C63FF"/>
<path d="M414.112 459C501.096 459 571.612 448.926 571.612 436.5C571.612 424.074 501.096 414 414.112 414C327.127 414 256.612 424.074 256.612 436.5C256.612 448.926 327.127 459 414.112 459Z" fill="#3F3D56"/>
<path d="M733.612 576H625.612C620.641 576 616.612 580.029 616.612 585C616.612 589.971 620.641 594 625.612 594H733.612C738.582 594 742.612 589.971 742.612 585C742.612 580.029 738.582 576 733.612 576Z" fill="#3F3D56"/>
<path d="M785.951 415.54L750.282 584.99L759.572 628.36L777.112 710.21V747C777.113 747.05 777.11 747.1 777.102 747.15C777.096 747.963 776.946 748.769 776.661 749.53H762.562C762.277 748.769 762.128 747.963 762.121 747.15C762.113 747.1 762.11 747.05 762.112 747V711.79L746.192 637.5L742.971 622.5L736.741 593.43L734.942 585.01V585L736.721 576.56L738.092 570.05L771.272 412.46C771.473 411.495 771.863 410.58 772.418 409.766C772.974 408.952 773.684 408.255 774.509 407.716C775.334 407.177 776.257 406.805 777.225 406.623C778.194 406.44 779.189 406.451 780.153 406.653C781.118 406.855 782.033 407.246 782.846 407.802C783.66 408.358 784.356 409.069 784.894 409.895C785.433 410.72 785.803 411.644 785.985 412.612C786.166 413.581 786.155 414.576 785.951 415.54L785.951 415.54Z" fill="#3F3D56"/>
<path d="M633.112 585V747C633.113 747.05 633.11 747.1 633.102 747.15C633.096 747.963 632.947 748.769 632.661 749.53H618.562C618.277 748.769 618.128 747.963 618.121 747.15C618.113 747.1 618.11 747.05 618.112 747V585C618.112 583.011 618.902 581.103 620.308 579.697C621.715 578.29 623.622 577.5 625.612 577.5C627.601 577.5 629.508 578.29 630.915 579.697C632.321 581.103 633.112 583.011 633.112 585Z" fill="#3F3D56"/>
<path d="M643.612 558H715.612C722.772 558 729.64 560.845 734.703 565.908C739.767 570.972 742.612 577.839 742.612 585H616.612C616.612 577.839 619.456 570.972 624.52 565.908C629.583 560.845 636.451 558 643.612 558Z" fill="#3F3D56"/>
<path d="M751.612 637.5H625.612C623.623 637.5 621.715 636.71 620.308 635.303C618.902 633.897 618.112 631.989 618.112 630C618.112 628.011 618.902 626.103 620.308 624.697C621.715 623.29 623.623 622.5 625.612 622.5H751.612C753.601 622.5 755.508 623.29 756.915 624.697C758.321 626.103 759.112 628.011 759.112 630C759.112 631.989 758.321 633.897 756.915 635.303C755.508 636.71 753.601 637.5 751.612 637.5Z" fill="#3F3D56"/>
<path d="M165.521 594.273H292.612C297.582 594.273 301.612 590.243 301.612 585.273V582.545C301.612 577.575 297.582 573.545 292.612 573.545H165.521C160.55 573.545 156.521 577.575 156.521 582.545V585.273C156.521 590.243 160.55 594.273 165.521 594.273Z" fill="#3F3D56"/>
<path d="M164.212 584.03L161.911 593.51L153.471 628.23L149.832 643.23L132.931 712.81V743C132.936 744.478 132.497 745.924 131.672 747.15C131.023 748.142 130.14 748.959 129.102 749.53H121.762C120.723 748.959 119.841 748.142 119.192 747.15C118.366 745.924 117.927 744.478 117.931 743V711.01L136.712 633.71L148.832 583.79L107.732 388.54C107.528 387.576 107.517 386.582 107.698 385.614C107.879 384.646 108.249 383.723 108.787 382.898C109.325 382.073 110.021 381.362 110.834 380.806C111.647 380.25 112.561 379.86 113.525 379.657C114.489 379.455 115.483 379.444 116.451 379.627C117.419 379.809 118.342 380.18 119.166 380.719C119.99 381.258 120.701 381.954 121.256 382.767C121.811 383.581 122.2 384.496 122.402 385.46L160.392 565.89L162.142 574.21L164.181 583.91L164.212 584.03Z" fill="#3F3D56"/>
<path d="M298.752 583.91V743C298.756 744.478 298.317 745.924 297.491 747.15C296.843 748.142 295.96 748.959 294.922 749.53H287.572C286.538 748.956 285.659 748.139 285.012 747.15C284.186 745.924 283.747 744.478 283.752 743V583.91C283.752 581.921 284.542 580.013 285.948 578.607C287.355 577.2 289.263 576.41 291.252 576.41C293.241 576.41 295.149 577.2 296.555 578.607C297.962 580.013 298.752 581.921 298.752 583.91Z" fill="#3F3D56"/>
<path d="M301.612 583.909H156.521V579.818C156.521 576.272 157.219 572.762 158.576 569.486C159.933 566.21 161.922 563.233 164.429 560.726C166.936 558.219 169.912 556.23 173.188 554.873C176.464 553.517 179.975 552.818 183.521 552.818H274.612C281.773 552.818 288.64 555.663 293.704 560.726C298.767 565.79 301.612 572.657 301.612 579.818V583.909H301.612Z" fill="#3F3D56"/>
<path d="M291.248 643.227H146.157C144.168 643.227 142.26 642.437 140.854 641.03C139.447 639.624 138.657 637.716 138.657 635.727C138.657 633.738 139.447 631.83 140.854 630.424C142.26 629.017 144.168 628.227 146.157 628.227H291.248C293.237 628.227 295.145 629.017 296.551 630.424C297.958 631.83 298.748 633.738 298.748 635.727C298.748 637.716 297.958 639.624 296.551 641.03C295.145 642.437 293.237 643.227 291.248 643.227Z" fill="#3F3D56"/>
<path d="M477.713 708.651L461.95 701.112L483.603 635.223L506.869 646.349L477.713 708.651Z" fill="#9E616A"/>
<path d="M584.542 702.683L567.592 706.865L543.033 642.018L568.051 635.845L584.542 702.683Z" fill="#9E616A"/>
<path d="M519.575 422.267C521.823 425.919 525.41 428.547 529.569 429.59C533.729 430.633 538.131 430.01 541.837 427.852C542.582 427.401 543.289 426.889 543.949 426.321L593.786 454.921L591.621 425.563L544.627 402.905C542.07 400.336 538.733 398.689 535.139 398.221C531.545 397.752 527.897 398.49 524.768 400.318C522.966 401.4 521.399 402.832 520.158 404.528C518.918 406.225 518.03 408.153 517.546 410.198C517.062 412.244 516.992 414.365 517.341 416.438C517.689 418.51 518.449 420.492 519.575 422.267Z" fill="#9E616A"/>
<path d="M572.36 444.152L581.169 449.52L620.733 473.646C623.332 475.272 626.226 476.37 629.249 476.877C632.272 477.384 635.366 477.29 638.353 476.601C641.34 475.911 644.162 474.64 646.657 472.859C649.152 471.078 651.272 468.823 652.895 466.223C655.825 461.396 656.861 455.656 655.805 450.11L638.22 362.257C637.57 358.809 636.184 355.541 634.155 352.677C632.126 349.814 629.503 347.422 626.465 345.665C623.426 343.909 620.045 342.829 616.551 342.5C613.057 342.171 609.533 342.6 606.22 343.759C600.652 345.715 596.038 349.72 593.318 354.958C590.597 360.196 589.974 366.273 591.576 371.954L609.963 434.301L581.778 421.161L572.36 444.152Z" fill="#E6E6E6"/>
<path d="M551.531 684.51L524.407 630.111L524.41 629.987L527.088 530.21C527.122 529.323 527.194 528.432 527.302 527.555C527.775 523.554 529.04 519.688 531.022 516.181C533.005 512.674 535.666 509.597 538.85 507.129C541.9 504.743 545.394 502.988 549.129 501.967C552.863 500.945 556.764 500.678 560.604 501.18L638.164 511.217L640.854 500.218L641.354 500.036L715.669 472.8L716.097 473.498C725.83 489.334 732.634 520.967 734.487 530.285L734.514 530.419C734.553 530.616 734.576 530.735 734.584 530.77C738.41 546.67 722.603 573.011 706.855 576.97C673.685 585.424 644.02 578.83 609.67 571.192C597.352 568.452 584.623 565.621 570.601 563.173L571.017 571.426C571.359 577.778 572.679 584.039 574.93 589.988C577.43 597.311 579.405 603.094 575.229 615.153L573.209 620.987C574.256 623.883 574.617 626.983 574.262 630.042C573.907 633.101 572.847 636.036 571.164 638.616L570.758 639.236L588.645 684.5L551.531 684.51Z" fill="#2F2E41"/>
<path d="M506.965 660.453L474.62 657.447L486.079 620.8C488.444 596.871 494.403 573.435 503.754 551.283L519.384 514.241C519.42 513.416 519.49 512.587 519.59 511.774C520.063 507.773 521.328 503.907 523.31 500.4C525.293 496.893 527.954 493.816 531.138 491.349C534.188 488.963 537.682 487.209 541.417 486.188C545.152 485.167 549.052 484.899 552.892 485.4L630.337 495.422L633.71 467.111L708.045 457.164L708.385 457.718C721.378 478.858 729.627 495.408 734.344 509.801C734.581 510.535 734.792 511.284 734.971 512.03C738.823 528.039 729.208 544.269 713.537 548.209C673.602 558.391 625.58 558.108 562.441 547.315L531.884 620.035C528.963 626.981 525.347 633.613 521.091 639.831L506.965 660.453Z" fill="#2F2E41"/>
<path d="M619.789 293.339C640.482 293.339 657.257 276.191 657.257 255.037C657.257 233.883 640.482 216.734 619.789 216.734C599.097 216.734 582.322 233.883 582.322 255.037C582.322 276.191 599.097 293.339 619.789 293.339Z" fill="#9E616A"/>
<path d="M630.608 496.759L625.232 477.5L623.91 468L616.183 468.258L601.018 433.254L595.128 424.024C593.927 422.76 592.839 421.544 591.864 420.376C585.726 413.439 580.805 405.515 577.308 396.938C574.858 390.776 573.419 384.259 573.048 377.638C571.948 358.08 580.193 337.388 598.253 314.383C597.957 313.569 597.76 312.722 597.665 311.861C597.342 309.066 598.136 306.257 599.873 304.045C601.611 301.832 604.152 300.395 606.943 300.047L624.363 298.091C625.717 297.937 627.089 298.055 628.397 298.436C629.706 298.818 630.926 299.456 631.986 300.313C633.092 301.2 634.011 302.299 634.689 303.544C635.367 304.79 635.79 306.158 635.934 307.569C636.167 309.751 635.738 311.953 634.702 313.888C643.581 315.015 651.946 318.68 658.795 324.443C665.643 330.205 670.684 337.821 673.312 346.377C683.735 365.835 692.043 386.354 698.093 407.583C699.285 411.741 698.754 416.025 698.241 420.168C697.766 423.996 697.276 427.953 698.101 431.897C698.94 435.909 700.958 439.934 703.095 444.194C705.542 449.074 708.073 454.12 708.757 459.264L708.805 459.625L630.608 496.759Z" fill="#E4E4E4"/>
<path opacity="0.2" d="M577.771 396.749C581.253 405.276 586.146 413.155 592.247 420.055C593.292 421.302 594.395 422.528 595.55 423.756L601.477 433.055C623.325 416.679 641.027 352.198 641.027 352.198L616.376 347.402L577.771 396.749Z" fill="black"/>
<path d="M562.847 296.917C565.006 300.625 565.632 305.029 564.594 309.192C563.555 313.355 560.933 316.948 557.285 319.207C556.536 319.655 555.752 320.039 554.94 320.357L556.685 377.792L531.813 362.135L533.969 309.995C532.911 306.525 533.031 302.802 534.31 299.408C535.59 296.014 537.958 293.139 541.043 291.231C542.841 290.144 544.838 289.428 546.916 289.126C548.995 288.823 551.113 288.941 553.146 289.471C555.178 290.001 557.084 290.933 558.75 292.212C560.417 293.491 561.81 295.091 562.847 296.917Z" fill="#9E616A"/>
<path d="M558.871 356.112L531.519 360.002L532.695 416.643C532.763 420.684 533.863 424.64 535.891 428.136C537.919 431.632 540.807 434.551 544.281 436.616C548.525 439.113 553.465 440.162 558.358 439.607C563.25 439.051 567.83 436.921 571.406 433.536L635.981 371.424C640.524 367.114 643.244 361.226 643.579 354.973C643.915 348.719 641.841 342.575 637.785 337.803C635.778 335.427 633.314 333.479 630.54 332.074C627.765 330.668 624.736 329.835 621.634 329.622C618.531 329.41 615.417 329.823 612.477 330.837C609.536 331.851 606.83 333.445 604.518 335.525C603.879 336.096 603.272 336.7 602.699 337.336L560.06 386.389L558.871 356.112Z" fill="#E6E6E6"/>
<path d="M330.104 725.568L349.518 725.567L358.754 650.683L330.101 650.684L330.104 725.568Z" fill="#FFB6B6"/>
<path d="M220.061 294.451C241.461 294.451 258.809 277.103 258.809 255.703C258.809 234.302 241.461 216.954 220.061 216.954C198.661 216.954 181.312 234.302 181.312 255.703C181.312 277.103 198.661 294.451 220.061 294.451Z" fill="#FFB6B6"/>
<path d="M355.854 702.5H328.362L321.353 693.105L319.456 684.253L317.823 682.673C315.608 680.547 314.176 677.735 313.759 674.693C313.342 671.651 313.964 668.557 315.525 665.913L295.6 572.952C290.382 572.493 231.531 567.231 190.622 559.991C180.152 558.138 171.978 553.049 166.327 544.865C152.439 524.754 158.388 492.214 158.449 491.888L158.518 491.525L158.885 491.483L254.44 480.758L254.568 480.819C257.739 482.321 332.37 517.751 344.565 529.947C350.073 535.454 362.359 568.174 365.11 602.96C365.603 609.192 363.83 615.539 362.115 621.676C360.51 627.419 358.851 633.357 359.179 638.971C359.685 647.632 360.164 656.718 360.604 665.976C360.674 667.451 361.786 668.978 362.86 670.454C363.983 671.997 365.044 673.453 365.111 674.978C365.764 689.762 356.102 702.186 356.004 702.31L355.854 702.5Z" fill="#2F2E41"/>
<path d="M362.114 358.909C360.033 358.34 357.852 358.234 355.725 358.599C353.598 358.964 351.577 359.791 349.804 361.021C348.032 362.252 346.55 363.856 345.465 365.721C344.379 367.586 343.716 369.667 343.521 371.816L311.326 381.878L312.669 402.935L357.935 388.086C361.567 388.174 365.105 386.926 367.879 384.579C370.653 382.233 372.469 378.95 372.984 375.354C373.499 371.757 372.677 368.097 370.674 365.066C368.671 362.035 365.625 359.844 362.114 358.909V358.909Z" fill="#FFB6B6"/>
<path d="M341.108 393.753L317.046 402.86L316.43 404.054C314.955 406.916 312.404 409.074 309.337 410.055C306.27 411.035 302.94 410.758 300.078 409.282L245.993 429.752C245.993 429.752 221.84 405.582 204.644 384.012L210.505 347.964C211.862 339.6 214.747 331.557 219.016 324.238C254.282 331.971 274.526 381.27 274.526 381.27L338.084 369.143L341.108 393.753Z" fill="#6C63FF"/>
<path d="M214.555 292.38C204.854 295 194.159 291.517 186.589 284.909C179.019 278.302 174.283 268.94 171.554 259.269C169.556 252.186 168.608 244.325 171.762 237.675C174.916 231.026 183.403 226.54 189.951 229.899C185.911 225.193 187.929 217.409 192.647 213.383C197.365 209.357 203.843 208.203 210.013 207.572C218.967 206.656 228.216 206.553 236.737 209.454C245.257 212.355 252.999 218.697 255.666 227.294C258.389 228.562 261.456 228.891 264.387 228.23C267.317 227.568 269.946 225.953 271.86 223.638C272.354 226.297 271.957 229.044 270.732 231.456C269.507 233.867 267.521 235.807 265.083 236.976L278.138 232.743C280.383 237.495 276.449 243.377 271.418 244.899C266.387 246.421 260.956 244.758 256.182 242.559C251.408 240.36 246.782 237.58 241.596 236.723C236.41 235.865 230.319 237.532 227.92 242.208C226.664 244.658 226.598 247.527 225.869 250.181C225.14 252.836 223.292 255.588 220.548 255.805C218.814 255.943 217.116 255.019 215.387 255.208C213.244 255.442 211.603 257.384 211.032 259.463C210.601 261.582 210.596 263.766 211.016 265.887L214.333 291.235" fill="#2F2E41"/>
<path d="M166.549 549.495C166.542 549.495 166.535 549.494 166.527 549.493L166.221 549.44L166.132 549.143C165.018 545.396 163.601 541.56 162.23 537.851C160.211 532.713 158.506 527.458 157.125 522.114C156.038 517.005 155.284 511.831 154.869 506.624C154.486 502.843 154.091 498.934 153.418 495.086C153.12 493.377 154.251 491.759 155.346 490.194C156.36 488.744 157.319 487.373 157.118 486.077C156.912 484.751 155.442 483.295 154.02 481.887C152.461 480.343 150.85 478.747 150.622 477.067C147.516 454.147 146.07 431.032 146.296 407.904C146.617 375.903 148.063 354.091 150.594 343.073C157.4 313.446 188.843 308.039 193.764 307.372C194.289 305.975 195.095 304.702 196.132 303.631C197.17 302.559 198.417 301.713 199.795 301.145C201.174 300.576 202.655 300.297 204.146 300.326C205.637 300.354 207.107 300.689 208.463 301.31L230.804 311.537C235.335 313.619 239.39 316.61 242.717 320.326C246.044 324.041 248.571 328.401 250.141 333.134L253.46 343.252L255.123 411.171L245.91 459L263.91 486C167.977 538.67 166.858 549.495 166.549 549.495Z" fill="#6C63FF"/>
<path d="M319.657 718.022L325.969 718.022L350.613 708L363.821 718.021H363.823C371.287 718.021 378.446 720.986 383.724 726.264C389.002 731.542 391.967 738.701 391.968 746.165V747.08L319.658 747.082L319.657 718.022Z" fill="#2F2E41"/>
<path d="M370.175 407.377C368.314 406.284 366.237 405.613 364.088 405.41C361.94 405.208 359.773 405.479 357.741 406.204C355.708 406.93 353.86 408.092 352.325 409.609C350.791 411.126 349.607 412.962 348.859 414.986L315.153 416.3L310.612 432L358.529 434.453C362.012 435.485 365.753 435.204 369.043 433.662C372.333 432.12 374.943 429.425 376.379 426.088C377.814 422.75 377.976 419.002 376.832 415.554C375.689 412.105 373.321 409.195 370.175 407.377Z" fill="#FFB6B6"/>
<path d="M342.489 436.146L307.866 435.714L303.484 435.655L233.043 434.768C233.043 434.768 213.914 416.518 197.258 397.73L199.592 380.843C201.869 364.271 210.09 349.091 222.724 338.128C246.58 354.068 260.415 385.62 260.415 385.62L283.612 396C299.936 396.73 315.844 401.389 329.983 409.581L337.612 414L342.489 436.146Z" fill="#6C63FF"/>
<path d="M596.91 734.624L585.39 737.467L580.65 727.098L578.068 739.274L547.514 746.815C546.049 747.176 544.507 747.06 543.114 746.483C541.72 745.906 540.547 744.899 539.766 743.609C538.985 742.318 538.637 740.811 538.773 739.309C538.909 737.807 539.521 736.387 540.521 735.258L560.762 712.385L558.048 701.39L584.09 696.588L596.91 734.624Z" fill="#2F2E41"/>
<path d="M474.869 738.179L463.883 733.695L466.156 722.523L456.9 730.845L427.763 718.952C426.366 718.382 425.189 717.38 424.401 716.093C423.614 714.807 423.259 713.302 423.388 711.799C423.516 710.296 424.122 708.873 425.116 707.739C426.111 706.604 427.442 705.818 428.915 705.493L458.742 698.921L463.022 688.436L486.899 699.886L474.869 738.179Z" fill="#2F2E41"/>
<path d="M436.612 432.5H427.612C417.935 432.489 408.657 428.64 401.814 421.797C394.972 414.955 391.123 405.677 391.112 396V395.5H473.112V396C473.101 405.677 469.252 414.955 462.409 421.797C455.566 428.64 446.289 432.489 436.612 432.5Z" fill="#E4E4E4"/>
<path d="M427.612 382.5C427.612 384.985 423.112 387 423.112 387C423.112 387 418.612 384.985 418.612 382.5C418.612 380.015 423.112 378 423.112 378C423.112 378 427.612 380.015 427.612 382.5Z" fill="#3F3D56"/>
<path d="M454.612 382.5C454.612 384.985 450.112 387 450.112 387C450.112 387 445.612 384.985 445.612 382.5C445.612 380.015 450.112 378 450.112 378C450.112 378 454.612 380.015 454.612 382.5Z" fill="#3F3D56"/>
<path d="M436.612 391.5C436.612 393.985 432.112 396 432.112 396C432.112 396 427.612 393.985 427.612 391.5C427.612 389.015 432.112 387 432.112 387C432.112 387 436.612 389.015 436.612 391.5Z" fill="#3F3D56"/>
<path d="M405.112 373C407.597 373 409.612 370.985 409.612 368.5C409.612 366.015 407.597 364 405.112 364C402.626 364 400.612 366.015 400.612 368.5C400.612 370.985 402.626 373 405.112 373Z" fill="#3F3D56"/>
<path d="M339.666 358.829L410.639 368.631C411.281 368.72 411.898 368.938 412.454 369.272C413.009 369.605 413.491 370.048 413.871 370.574C414.25 371.099 414.519 371.696 414.662 372.329C414.804 372.961 414.817 373.615 414.699 374.253C414.582 374.89 414.336 375.497 413.977 376.037C413.618 376.577 413.154 377.038 412.612 377.393C412.07 377.749 411.461 377.99 410.823 378.104C410.185 378.218 409.53 378.201 408.899 378.054L339.105 361.867C338.718 361.777 338.38 361.541 338.161 361.208C337.943 360.875 337.862 360.471 337.934 360.08C338.006 359.689 338.227 359.34 338.549 359.107C338.872 358.874 339.272 358.775 339.666 358.829Z" fill="#E4E4E4"/>
<path d="M425.91 135.213V0H416.91V135.213C404.613 136.335 393.18 142.013 384.854 151.132C376.528 160.25 371.912 172.152 371.91 184.5V198H403.41C403.41 202.774 405.307 207.352 408.682 210.728C412.058 214.104 416.636 216 421.41 216C426.184 216 430.762 214.104 434.138 210.728C437.514 207.352 439.41 202.774 439.41 198H470.91V184.5C470.909 172.152 466.292 160.25 457.966 151.132C449.641 142.013 438.207 136.335 425.91 135.213Z" fill="#F0F0F0"/>
<path d="M541.785 101.41V0H535.035V101.41C525.812 102.251 517.237 106.509 510.993 113.349C504.749 120.188 501.286 129.114 501.285 138.375V148.5H524.91C524.91 152.08 526.332 155.514 528.864 158.046C531.396 160.578 534.83 162 538.41 162C541.991 162 545.424 160.578 547.956 158.046C550.488 155.514 551.91 152.08 551.91 148.5H575.535V138.375C575.534 129.114 572.072 120.188 565.827 113.349C559.583 106.509 551.008 102.251 541.785 101.41Z" fill="#F0F0F0"/>
<path d="M313.785 101.41V0H307.035V101.41C297.812 102.251 289.237 106.509 282.993 113.349C276.749 120.188 273.286 129.114 273.285 138.375V148.5H296.91C296.91 152.08 298.332 155.514 300.864 158.046C303.396 160.578 306.83 162 310.41 162C313.991 162 317.424 160.578 319.956 158.046C322.488 155.514 323.91 152.08 323.91 148.5H347.535V138.375C347.534 129.114 344.072 120.188 337.827 113.349C331.583 106.509 323.008 102.251 313.785 101.41Z" fill="#F0F0F0"/>
<path d="M720.048 238.425C713.68 230.998 710.652 221.145 705.561 212.711C700.469 204.277 691.609 196.729 682.25 198.692C675.797 200.045 670.811 205.738 668.287 212.086C665.763 218.433 665.29 225.433 664.847 232.291C665.003 218.198 655.719 204.536 642.929 200.04C630.14 195.543 614.834 200.559 606.797 211.881C603.29 208.63 598.712 206.779 593.931 206.679C589.15 206.578 584.499 208.236 580.858 211.336C573.67 217.761 572.079 229.989 577.366 238.184C582.652 246.379 594.102 249.432 602.503 244.887L605.473 247.619C603.801 253.467 607.044 260.374 612.494 262.575C616.913 264.361 623.152 264.063 624.806 268.701C625.962 271.942 623.802 275.401 621.504 277.891C619.207 280.381 616.479 282.953 616.203 286.399C615.786 291.598 621.159 295.241 626.043 296.338C637.82 298.983 650.888 293.529 657.676 283.135C657.807 282.935 657.949 282.734 658.103 282.533C661.912 277.663 664.687 272.067 666.26 266.088C667.833 260.109 668.17 253.872 667.251 247.758C666.869 245.356 667.254 243.569 668.91 243C676.069 240.541 696.126 245.702 702.195 250.366C708.266 255.031 713.127 261.204 718.973 266.169C724.82 271.134 732.271 274.964 739.695 273.612C745.641 272.529 750.699 268.213 754.101 263.006C757.503 257.799 759.461 251.73 761.215 245.699C748.067 253.294 730.073 250.115 720.048 238.425Z" fill="#2F2E41"/>
</g>
<defs>
<clipPath id="clip0_9_91">
<rect width="893.68" height="749.53" fill="white"/>
</clipPath>
</defs>
</svg>
